<svg version="1.1" xmlns="http://www.w3.org/2000/svg" width="2048px" height="2048px" viewBox="0 0 2048 2048" preserveAspectRatio="xMidYMid meet" transform="rotate(0) scale(1, 1)">
<path d="M0 0 C12.59172615 6.32401149 23.75926154 16.19923438 34.62109375 25.06640625 C35.88759766 26.08927734 35.88759766 26.08927734 37.1796875 27.1328125 C44.17017552 32.80434052 51.00499427 38.64603477 57.82275391 44.52246094 C59.58657099 46.03676711 61.35816265 47.54138008 63.1328125 49.04296875 C69.83813682 54.72744893 76.37502298 60.55014917 82.79077148 66.56005859 C86.30536896 69.85228875 89.87053559 73.06325901 93.515625 76.2109375 C97.49996691 79.72218501 101.37419721 83.35552879 105.26953125 86.96484375 C108.33318984 89.80351766 111.41280688 92.62406326 114.49609375 95.44140625 C119.15932307 99.71448491 123.8037343 104.00719005 128.43359375 108.31640625 C129.04380371 108.88278809 129.65401367 109.44916992 130.28271484 110.03271484 C133.92952005 113.43355658 137.48790745 116.90381997 140.98242188 120.46118164 C142.69658152 122.14035322 144.4792265 123.70171585 146.30859375 125.25390625 C150.44052199 128.80816685 154.2554039 132.6395937 158.05737305 136.53979492 C160.71195195 139.24122198 163.42993799 141.79151232 166.30859375 144.25390625 C172.20282501 149.35252834 177.58994445 154.97770826 183.05761719 160.5234375 C184.47243088 161.95660031 185.89045073 163.38653892 187.30859375 164.81640625 C188.13746094 165.656875 188.96632813 166.49734375 189.8203125 167.36328125 C191.92761975 169.39711196 194.0445441 171.30913573 196.26438904 173.21168518 C200.73619619 177.11310421 204.93981624 181.24436214 209.12915039 185.44506836 C209.93837448 186.25254013 210.74759857 187.0600119 211.5813446 187.89195251 C214.2338199 190.54005603 216.88265501 193.19176588 219.53125 195.84375 C221.38620148 197.6980271 223.24130132 199.55215579 225.09654236 201.40614319 C228.97574637 205.28353465 232.85285278 209.16301414 236.72875977 213.04370117 C241.1916752 217.51205746 245.6581813 221.97680024 250.12656885 226.43968385 C254.44838916 230.75639637 258.76736562 235.07594271 263.08517265 239.39666939 C264.91238557 241.22454684 266.74033458 243.05168878 268.56904793 244.87806511 C271.12927766 247.43574023 273.68625443 249.99662516 276.24243164 252.55834961 C276.99015839 253.30405212 277.73788513 254.04975464 278.50827026 254.8180542 C282.53408557 258.85997518 286.39089993 262.991038 290.10249996 267.32407475 C292.38964012 269.94818423 294.83128392 272.37019235 297.30859375 274.81640625 C297.81479248 275.31881836 298.32099121 275.82123047 298.8425293 276.33886719 C300.43291225 277.91723337 302.0265382 279.49225634 303.62109375 281.06640625 C315.60203955 292.89403099 315.60203955 292.89403099 321.015625 299.23828125 C323.88741126 302.50834443 327.01515484 305.52091584 330.12109375 308.56640625 C334.59708791 312.99442386 338.95564891 317.43195621 343.01953125 322.24609375 C345.67056152 325.25921596 348.56982337 328.02261073 351.42578125 330.83984375 C354.06116118 333.51273799 356.49875864 336.32008928 358.94140625 339.16796875 C360.60313951 341.04611378 362.332349 342.80946141 364.12109375 344.56640625 C366.41435411 346.82438568 368.58537403 349.12637129 370.68359375 351.56640625 C374.2194348 355.67150969 377.91441572 359.61638979 381.62109375 363.56640625 C385.77899364 368.00045468 389.89714603 372.44763711 393.859375 377.05859375 C395.72339872 379.18300215 397.6379276 381.25684724 399.55957031 383.32910156 C403.53584663 387.61893875 407.39325263 391.94052329 411.05859375 396.50390625 C414.42458081 400.68880966 417.95310912 404.64928635 421.62109375 408.56640625 C426.04525091 413.2962274 430.2283859 418.14656254 434.28515625 423.19921875 C436.95983727 426.48218843 439.72310654 429.67910212 442.49609375 432.87890625 C446.94952205 438.03598889 451.22970098 443.29767771 455.40795898 448.67944336 C458.88906853 453.15852476 462.46061563 457.55588785 466.05859375 461.94140625 C470.95007071 467.91963707 475.64582146 474.01662777 480.25073242 480.2175293 C483.39536692 484.44805104 486.59750019 488.62249359 489.87109375 492.75390625 C500.35139635 506.0066426 510.59860046 519.43572991 520.33007812 533.24853516 C521.78363203 535.2952754 523.25532577 537.32814076 524.73046875 539.359375 C525.2819458 540.11903564 525.83342285 540.87869629 526.40161133 541.66137695 C527.44692001 543.09973526 528.49346448 544.53719704 529.54174805 545.97338867 C539.01530472 559.03029485 547.95363892 572.47191316 556.90014648 585.89233398 C558.55136117 588.36806217 560.20626866 590.84129412 561.86132812 593.31445312 C579.99089527 620.46008109 597.20549595 648.24883639 612.88085938 676.88720703 C614.05733804 679.03649228 615.2384561 681.1832435 616.42382812 683.32763672 C650.9325065 745.82648381 694.6523007 831.80701234 674.5546875 905.12109375 C666.83247314 930.04626089 648.10316393 949.42343172 628.62109375 966.06640625 C627.69683594 966.86820313 626.77257813 967.67 625.8203125 968.49609375 C617.04083002 976.06775009 607.90879372 983.13150654 598.62109375 990.06640625 C597.63955322 990.80334717 597.63955322 990.80334717 596.63818359 991.55517578 C565.86446002 1014.56392864 532.95555875 1035.02425359 499.62109375 1054.06640625 C498.60402344 1054.64777344 497.58695313 1055.22914062 496.5390625 1055.828125 C482.01876947 1064.10195235 467.31404943 1071.9571236 452.453125 1079.59960938 C449.11865722 1081.32663372 445.80683144 1083.09353939 442.49609375 1084.86547852 C400.85473294 1107.09137411 357.08672232 1125.33013336 312.62109375 1141.06640625 C311.55810059 1141.44716309 310.49510742 1141.82791992 309.39990234 1142.22021484 C223.94009829 1172.65629951 130.95324271 1186.21519241 40.62109375 1191.06640625 C39.88918823 1191.10844177 39.15728271 1191.15047729 38.40319824 1191.19378662 C18.98685705 1192.28699375 -0.43817763 1192.31028866 -19.87890625 1192.31640625 C-20.73843651 1192.31699539 -21.59796677 1192.31758453 -22.4835434 1192.31819153 C-50.88007328 1192.33189558 -79.08826932 1191.72216614 -107.37890625 1189.06640625 C-108.17341187 1188.99379578 -108.96791748 1188.9211853 -109.78649902 1188.84637451 C-192.45665311 1181.27714421 -274.2148169 1161.99646434 -436.37890625 1098.06640625 C-437.31120056 1097.62491241 -437.31120056 1097.62491241 -438.2623291 1097.17449951 C-455.30758203 1089.09463401 -472.21126726 1080.85455003 -488.65527344 1071.59667969 C-491.62114038 1069.93030697 -494.59702309 1068.28276002 -497.57421875 1066.63671875 C-537.66293538 1044.41813997 -576.66405865 1019.54214198 -613.37890625 992.06640625 C-614.21663574 991.44217773 -615.05436523 990.81794922 -615.91748047 990.17480469 C-663.89786291 954.33445409 -663.89786291 954.33445409 -678.37890625 930.06640625 C-678.77110352 929.41639648 -679.16330078 928.76638672 -679.56738281 928.09667969 C-690.82095784 909.09562353 -694.81773617 889.46820851 -694.75390625 867.44140625 C-694.75336243 866.72808136 -694.7528186 866.01475647 -694.7522583 865.27981567 C-694.70260155 850.96417211 -693.2097355 837.11423027 -690.37890625 823.06640625 C-690.18586914 822.10637695 -689.99283203 821.14634766 -689.79394531 820.15722656 C-683.80764242 791.64119261 -673.40848876 763.5307005 -661.37890625 737.06640625 C-660.84007812 735.87354004 -660.30125 734.68067383 -659.74609375 733.45166016 C-636.8463468 682.88154015 -608.5194013 634.97909797 -577.37890625 589.06640625 C-576.82380371 588.2460791 -576.26870117 587.42575195 -575.69677734 586.58056641 C-563.5364022 568.62276553 -551.09153726 550.92419648 -538.17871094 533.5 C-536.3569311 531.0366927 -534.54257195 528.56808908 -532.73046875 526.09765625 C-526.05438372 516.99930676 -519.29763371 507.98158243 -512.37890625 499.06640625 C-511.14744157 497.46416738 -509.91831208 495.86015441 -508.68920898 494.25610352 C-500.35469688 483.38748227 -491.88157625 472.64066312 -483.21777344 462.0324707 C-479.69447064 457.71083804 -476.23761767 453.34409242 -472.81640625 448.94140625 C-468.6006939 443.52768158 -464.20859205 438.2926043 -459.71850586 433.10498047 C-456.71604666 429.63501707 -453.76992536 426.1306049 -450.87890625 422.56640625 C-446.0045621 416.56788903 -440.96787916 410.71511399 -435.92285156 404.86035156 C-433.91802856 402.53090194 -431.92031674 400.19541323 -429.92260742 397.85986328 C-411.26777455 376.05950643 -411.26777455 376.05950643 -401.578125 365.48046875 C-399.06045199 362.71684189 -396.60156039 359.90674157 -394.1484375 357.0859375 C-390.603114 353.03972944 -386.98303381 349.06016922 -383.37890625 345.06640625 C-382.29609375 343.85984375 -382.29609375 343.85984375 -381.19140625 342.62890625 C-375.7596865 336.57641853 -370.2750904 330.57379964 -364.77294922 324.58544922 C-363.42213122 323.11350709 -362.07429652 321.63882889 -360.7265625 320.1640625 C-354.52629543 313.38109779 -348.27471635 306.64798101 -341.99609375 299.9375 C-339.57788698 297.35254289 -337.16691517 294.76112829 -334.76171875 292.1640625 C-328.62619534 285.54745259 -322.43924066 279.02536926 -315.9765625 272.7265625 C-313.96257686 270.66412007 -312.08512597 268.58760879 -310.21153259 266.4032135 C-306.45906976 262.10086077 -302.50062874 258.04706368 -298.45922852 254.01733398 C-297.7005246 253.25687775 -296.94182068 252.49642151 -296.16012573 251.71292114 C-293.67434817 249.22277531 -291.18496955 246.73626665 -288.6953125 244.25 C-286.95313669 242.5071497 -285.21110927 240.76415106 -283.46922302 239.02101135 C-279.82705217 235.37737033 -276.18308946 231.73553347 -272.5378418 228.0949707 C-267.87985737 223.44268312 -263.22637711 218.78592021 -258.57423496 214.1277914 C-254.98056654 210.53049899 -251.38450679 206.93560466 -247.78773308 203.34141731 C-246.07149928 201.62584769 -244.35599997 199.90954295 -242.64126778 198.19247246 C-240.23925833 195.78790624 -237.83403679 193.38659798 -235.42797852 190.98608398 C-234.72902969 190.28511093 -234.03008087 189.58413788 -233.30995178 188.86192322 C-229.35571857 184.92444219 -225.29813467 181.16682103 -221.06565762 177.5294199 C-219.08275276 175.80953579 -217.21615119 174.00306013 -215.37890625 172.12890625 C-214.71890625 171.46117187 -214.05890625 170.7934375 -213.37890625 170.10546875 C-212.71890625 169.43257812 -212.05890625 168.7596875 -211.37890625 168.06640625 C-206.7989274 163.39697469 -202.14793472 158.92544737 -197.19140625 154.65625 C-194.80774982 152.56541343 -192.590263 150.3375294 -190.37890625 148.06640625 C-186.89857607 144.49201309 -183.26385107 141.19627875 -179.49804688 137.93164062 C-175.95786382 134.81562697 -172.54922698 131.56272523 -169.12890625 128.31640625 C-159.82547383 119.52436329 -150.41057652 110.86930141 -140.8828125 102.3203125 C-138.16282734 99.87190152 -135.45795064 97.40740546 -132.75390625 94.94140625 C-127.28408176 89.96745149 -121.74654685 85.08666015 -116.125 80.28515625 C-114.91793312 79.25394795 -113.71090288 78.22269677 -112.50390625 77.19140625 C-111.89530762 76.67167236 -111.28670898 76.15193848 -110.65966797 75.61645508 C-107.12247668 72.5873503 -103.63489571 69.51484322 -100.19140625 66.37890625 C-96.02818199 62.6015418 -91.72182734 59.04213357 -87.3515625 55.5078125 C-84.04138359 52.78920302 -80.80415649 49.99533735 -77.56640625 47.19140625 C-71.29384494 41.78063883 -64.85302541 36.62942708 -58.30078125 31.56298828 C-56.23197134 29.95198666 -54.1798612 28.32116308 -52.12890625 26.6875 C-12.36368436 -4.85208631 -12.36368436 -4.85208631 0 0 Z " fill="#ffffff" transform="translate(1036.37890625,834.93359375)"/>
<path d="M0 0 C0.62277832 0.57234375 1.24555664 1.1446875 1.88720703 1.734375 C3.99225489 3.6717996 6.09066301 5.61619404 8.1875 7.5625 C8.85281738 8.17552979 9.51813477 8.78855957 10.20361328 9.42016602 C14.21438741 13.16425308 17.89532341 17.06511689 21.46606445 21.23022461 C23.22051476 23.25441851 25.07332246 25.13975961 27 27 C30.8799727 30.83554553 34.45857014 34.85244079 38 39 C38.90594952 40.05364385 39.81222583 41.10700677 40.71875 42.16015625 C43.30957591 45.17237899 45.89136705 48.19222095 48.47119141 51.21386719 C49.89627954 52.87882164 51.32803478 54.53776082 52.76171875 56.1953125 C58.99676289 63.43791432 64.8466188 70.92752067 70.61328125 78.546875 C73.44937014 82.29100628 76.33439255 85.99394633 79.2355957 89.68774414 C104.0332605 121.30673973 125.85559391 155.26099278 146 190 C146.52706543 190.9070166 147.05413086 191.8140332 147.59716797 192.74853516 C156.61068896 208.3148221 164.94943787 224.20111374 173.09899902 240.23052979 C173.9698228 241.94073518 174.8447028 243.6488733 175.71972656 245.35693359 C215.84226742 323.72900181 244.28187519 408.1944824 278 612 C278.06165344 612.91952454 278.12330688 613.83904907 278.18682861 614.78643799 C282.08085915 673.5703147 282.22645742 733.90878541 278.15820312 792.68658447 C277.99487419 795.07495515 277.84212846 797.46382989 277.69140625 799.85302734 C271.89789293 890.59606005 247.18928641 978.80746144 161.46777344 1178.43164062 C158.95681175 1182.82540592 156.58303624 1187.29263007 154.1875 1191.75 C147.16808713 1204.72149196 139.61357689 1217.37185112 132 1230 C131.35546875 1231.07266113 130.7109375 1232.14532227 130.046875 1233.25048828 C122.20529593 1246.26997995 114.08059054 1259.08112039 105.6875 1271.75 C105.28301636 1272.3641275 104.87853271 1272.978255 104.46179199 1273.61099243 C99.92809265 1280.48100085 95.2215711 1287.15916187 90.14453125 1293.640625 C89.69091721 1294.21987732 89.23730316 1294.79912964 88.76994324 1295.39593506 C86.34444809 1298.44601119 83.9171541 1301.4078517 81 1304 C80.34 1304 79.68 1304 79 1304 C78.64264008 1296.40557929 79.71088281 1289.64044978 81.375 1282.25 C97.88565293 1204.22543778 72.41401727 1114.90340961 -44.51513672 843.78564453 C-46.36330643 840.31842711 -48.19902368 836.84469621 -50.03515625 833.37109375 C-57.11508046 819.98577398 -64.21871512 806.62237193 -71.64355469 793.42431641 C-73.25565574 790.54307749 -74.85078467 787.6527197 -76.4453125 784.76171875 C-83.04900103 772.79989867 -89.74260638 760.90240515 -96.66577148 749.12158203 C-100.43462812 742.7038418 -104.13994334 736.25301859 -107.81079102 729.77880859 C-114.55885723 717.87846501 -121.49704935 706.11660102 -128.63500977 694.44604492 C-133.5794106 686.35998743 -138.43714312 678.22748881 -143.25 670.0625 C-149.47868507 659.51210183 -155.83610235 649.0531654 -162.33300781 638.66601562 C-164.10848887 635.82649408 -165.8787087 632.98373481 -167.6484375 630.140625 C-175.42380674 617.66054283 -183.2714535 605.22823922 -191.18896484 592.83789062 C-193.0638997 589.89986922 -194.93264588 586.95797378 -196.80078125 584.015625 C-205.425141 570.45460728 -214.24471908 557.03518296 -223.19346619 543.68641663 C-226.47912743 538.78346248 -229.75086405 533.87132759 -233.01953125 528.95703125 C-248.36257287 505.87897857 -248.36257287 505.87897857 -264 483 C-264.62277832 482.10071777 -265.24555664 481.20143555 -265.88720703 480.27490234 C-277.74567864 463.16126447 -289.70534545 446.12841133 -301.91796875 429.265625 C-304.21082723 426.09751664 -306.48746793 422.91855007 -308.75244141 419.73046875 C-314.78670007 411.2372559 -320.9741458 402.8591786 -327.16796875 394.48193359 C-329.00174662 391.99763378 -330.82987966 389.50928076 -332.65625 387.01953125 C-339.33035593 377.92561097 -346.08341414 368.91086811 -353 360 C-354.58407152 357.9380669 -356.16738522 355.87555141 -357.75 353.8125 C-364.12978012 345.51304978 -370.56216623 337.25445023 -377 329 C-377.49145508 328.36916504 -377.98291016 327.73833008 -378.48925781 327.08837891 C-384.2938433 319.64248281 -390.19269868 312.28102129 -396.15991211 304.96484375 C-401.98210184 297.81609008 -407.66122985 290.55845371 -413.33398438 283.29101562 C-419.27551235 275.68412506 -425.28358985 268.13972001 -431.40966797 260.68017578 C-432.9514287 258.79590967 -434.47586018 256.89853232 -436 255 C-436.86890869 253.95344238 -436.86890869 253.95344238 -437.75537109 252.88574219 C-438.31434082 252.18868164 -438.87331055 251.49162109 -439.44921875 250.7734375 C-439.96186279 250.14614746 -440.47450684 249.51885742 -441.00268555 248.87255859 C-442 247 -442 247 -441.86230469 244.97387695 C-440.8310546 242.61327193 -439.6531326 241.38194809 -437.75390625 239.64453125 C-437.08657471 239.02682861 -436.41924316 238.40912598 -435.73168945 237.77270508 C-435.01585693 237.1258374 -434.30002441 236.47896973 -433.5625 235.8125 C-432.83184326 235.14049561 -432.10118652 234.46849121 -431.34838867 233.77612305 C-429.2404 231.84156615 -427.12257806 229.91852447 -425 228 C-424.06671875 227.154375 -423.1334375 226.30875 -422.171875 225.4375 C-420.61110949 224.03177742 -419.04734756 222.62937395 -417.48046875 221.23046875 C-413.94109824 218.0478222 -410.45030143 214.81357073 -406.95629883 211.58129883 C-402.82351275 207.7583658 -398.677295 203.95049569 -394.52441406 200.14941406 C-391.35581947 197.24747306 -388.19678678 194.33545137 -385.04272461 191.41772461 C-379.90508245 186.66516118 -374.73924757 181.9486287 -369.52734375 177.27734375 C-366.66917537 174.70189991 -363.83314023 172.10288025 -361 169.5 C-359.00057931 167.66603328 -357.00033182 165.83297338 -355 164 C-354.14277344 163.21367187 -353.28554687 162.42734375 -352.40234375 161.6171875 C-348.2565278 157.84587473 -344.05376855 154.20196761 -339.6875 150.6875 C-335.46601101 147.27577477 -331.45928653 143.70680184 -327.5 140 C-322.77013147 135.57588814 -317.91984903 131.39271212 -312.8671875 127.3359375 C-309.58421782 124.66125648 -306.38730413 121.89798721 -303.1875 119.125 C-298.02764378 114.66917656 -292.76318662 110.38660741 -287.37817383 106.20654297 C-283.65333489 103.31201664 -279.98281688 100.36185289 -276.33984375 97.36499023 C-260.7556896 84.55569852 -244.42232094 72.70527131 -228 61 C-227.21689453 60.43958008 -226.43378906 59.87916016 -225.62695312 59.30175781 C-212.70291254 50.06955638 -199.48917361 41.38319368 -186 33 C-185.32694824 32.57912109 -184.65389648 32.15824219 -183.96044922 31.72460938 C-130.69619791 -1.4754071 -53.33906622 -49.25809069 0 0 Z " fill="#ffffff" transform="translate(1746,326)"/>
<path d="M0 0 C6.97942557 5.25378652 13.93269543 10.54044098 20.86035156 15.86230469 C22.83322876 17.37519109 24.81115907 18.88084639 26.79345703 20.38134766 C35.12810165 26.71817484 43.19212846 33.36076813 51.24951172 40.04443359 C53.79586673 42.15109297 56.35858716 44.23735 58.92236328 46.32275391 C71.82567622 56.87116358 84.49689275 67.73446642 97.00439453 78.74853516 C98.76303652 80.279029 100.53185275 81.79449187 102.30908203 83.30322266 C108.89619575 88.90070139 115.36523379 94.5881464 121.69189453 100.47900391 C125.15142865 103.69994947 128.6588095 106.8489808 132.23095703 109.94384766 C138.88086494 115.73742939 145.36199605 121.7213888 151.85327148 127.69116211 C154.57485822 130.1886851 157.31655324 132.65580564 160.10986328 135.07275391 C164.29268339 138.69670035 168.33508135 142.46781137 172.39257812 146.23046875 C175.90718357 149.48390177 179.46844995 152.66934153 183.09033203 155.80322266 C186.30178699 158.62906201 189.44290296 161.53138436 192.58813477 164.43041992 C196.74817642 168.26146352 200.96635069 172.02348878 205.21142578 175.76025391 C207.17236328 177.63525391 207.17236328 177.63525391 209.17236328 180.63525391 C208.39892578 181.52986328 207.62548828 182.42447266 206.82861328 183.34619141 C201.56328491 189.45217395 196.34635768 195.57588495 191.34423828 201.90087891 C188.58423332 205.37570529 185.78552174 208.81816361 182.98486328 212.26025391 C182.15160522 213.28481689 182.15160522 213.28481689 181.30151367 214.33007812 C180.16043188 215.73300197 179.01923613 217.13583312 177.87792969 218.53857422 C174.60149838 222.56634291 171.32773294 226.59628032 168.05517578 230.62719727 C165.31422755 234.00260896 162.56933616 237.3746743 159.81689453 240.74072266 C154.04808125 247.80282181 148.36438265 254.90880251 142.83251953 262.15869141 C139.6417022 266.34027042 136.40527075 270.48619033 133.17236328 274.63525391 C127.47931983 281.94859593 121.80596081 289.2759646 116.17236328 296.63525391 C115.59260742 297.3914502 115.01285156 298.14764648 114.41552734 298.92675781 C100.91476056 316.54494992 87.74839389 334.38772157 74.78125 352.40136719 C72.62379278 355.39692615 70.46224146 358.38951744 68.30029297 361.38183594 C67.21332379 362.88644384 66.12673636 364.3913276 65.04052734 365.89648438 C62.37577729 369.58865603 59.70682994 373.27762345 57.02783203 376.95947266 C44.93258729 393.60399596 33.25628949 410.54279988 21.62593079 427.51422119 C20.67162216 428.90673981 19.71711009 430.29911903 18.76237488 431.69134521 C10.58326014 443.61968072 2.44530227 455.57533617 -5.64916992 467.5612793 C-6.89732335 469.40844186 -8.1466808 471.2547914 -9.3972168 473.1003418 C-16.3084608 483.30051482 -23.10589151 493.54031302 -29.58178711 504.02270508 C-33.01280351 509.56892977 -36.61371665 515.00275963 -40.20263672 520.44775391 C-46.66371142 530.28574436 -53.03342815 540.17494965 -59.27490234 550.15380859 C-60.98175834 552.88155771 -62.69373471 555.60606008 -64.40576172 558.33056641 C-72.35833844 571.00227726 -80.19549467 583.7397583 -87.94726562 596.53515625 C-89.96958131 599.86927265 -91.99772736 603.19981322 -94.02685547 606.52978516 C-107.946835 629.38249977 -121.50407629 652.42931754 -134.82763672 675.63525391 C-135.35744141 676.55693359 -135.88724609 677.47861328 -136.43310547 678.42822266 C-148.11319405 698.75578041 -159.57383908 719.19931217 -170.69482422 739.83837891 C-172.68248799 743.52539135 -174.68557377 747.20292505 -176.71044922 750.86962891 C-199.68676816 792.50707728 -221.39889853 835.23315312 -240.82763672 878.63525391 C-241.40605976 879.91780249 -241.98485154 881.20018482 -242.56396484 882.48242188 C-256.93705444 914.34226524 -270.26777323 946.64263944 -281.82763672 979.63525391 C-282.05259827 980.27619995 -282.27755981 980.917146 -282.50933838 981.57751465 C-298.46237858 1027.11299437 -310.55772722 1073.93055414 -317.54052734 1121.69342041 C-317.80688314 1123.49488929 -318.08624489 1125.2944221 -318.36669922 1127.09375 C-320.74675553 1142.61370051 -321.12890338 1158.02558997 -321.20263672 1173.69775391 C-321.21067322 1174.65261688 -321.21870972 1175.60747986 -321.22698975 1176.59127808 C-321.32893069 1192.53267949 -320.45163689 1208.20885144 -314.70263672 1223.26025391 C-312.64844426 1228.78152242 -311.36980664 1233.7507267 -310.82763672 1239.63525391 C-314.49911045 1239.4301806 -315.72873404 1238.73355075 -318.37841797 1236.10009766 C-319.31529497 1234.93726597 -320.23462215 1233.76017102 -321.14013672 1232.57275391 C-321.64722168 1231.92371094 -322.15430664 1231.27466797 -322.67675781 1230.60595703 C-329.61529239 1221.54287266 -335.78715162 1211.92344226 -342.02978516 1202.37597656 C-343.96212209 1199.43023859 -345.922107 1196.50452059 -347.8918457 1193.58374023 C-370.33673759 1160.25143527 -390.55279858 1125.40742653 -408.82763672 1089.63525391 C-409.18486816 1088.9373877 -409.54209961 1088.23952148 -409.91015625 1087.52050781 C-411.86894072 1083.68167909 -413.78918834 1079.82535132 -415.68603516 1075.95556641 C-416.51495816 1074.27077507 -417.34971443 1072.58884977 -418.18798828 1070.90869141 C-444.54891275 1018.01421035 -464.51555563 961.66459709 -479.82763672 904.63525391 C-480.04164124 903.84193665 -480.25564575 903.04861938 -480.47613525 902.23126221 C-498.79198476 834.18035366 -509.68440641 764.55603052 -517.82763672 694.63525391 C-517.92902954 693.77923584 -518.03042236 692.92321777 -518.1348877 692.04125977 C-522.84604119 652.16579699 -522.35918325 611.5035679 -517.82763672 571.63525391 C-517.7230011 570.70434937 -517.61836548 569.77344482 -517.51055908 568.81433105 C-510.19852128 504.13512412 -501.18952357 438.7065273 -484.82763672 375.63525391 C-484.51745605 374.43594238 -484.20727539 373.23663086 -483.88769531 372.00097656 C-466.93498769 307.12168252 -442.35198728 244.68338165 -412.77740479 184.56732178 C-411.80176862 182.58263168 -410.82893297 180.59658609 -409.85644531 178.61035156 C-401.86277933 162.30142766 -393.63467798 146.21649001 -384.49462891 130.51171875 C-382.70493217 127.42352206 -380.94058246 124.32171154 -379.17919922 121.21728516 C-371.13588123 107.08209149 -362.73909425 93.2395939 -353.82763672 79.63525391 C-353.25158691 78.75530762 -352.67553711 77.87536133 -352.08203125 76.96875 C-335.88295894 52.30187811 -319.01063082 28.07028161 -300.20410156 5.31152344 C-298.3615261 3.06762079 -296.5630199 0.79004393 -294.76513672 -1.48974609 C-287.21807933 -10.94342851 -279.22464568 -20.0251305 -271.04248047 -28.93115234 C-269.17653526 -30.98138844 -267.36992936 -33.0631453 -265.57763672 -35.17724609 C-261.60916628 -39.75988458 -257.25901135 -43.96120198 -252.95068359 -48.22021484 C-249.86711861 -51.28069432 -246.87771229 -54.35048964 -244.07763672 -57.67724609 C-240.81252083 -61.52483241 -237.14577717 -64.81872972 -233.35498047 -68.14208984 C-231.76028802 -69.54453189 -230.18650947 -70.9714658 -228.64404297 -72.43115234 C-170.4317382 -127.01186379 -48.82827478 -36.50016865 0 0 Z " fill="#ffffff" transform="translate(543.82763671875,392.36474609375)"/>
<path d="M0 0 C2.82830661 -0.00447773 5.65658867 -0.01217477 8.48488617 -0.02053452 C96.13071235 -0.24443654 180.93672759 8.95027791 315.82649994 48.24542618 C316.59349213 48.4974379 317.36048431 48.74944962 318.15071869 49.00909805 C382.10507477 70.05107531 444.62789707 96.06434923 502.40608978 130.79278946 C504.63105631 132.12812846 506.86250421 133.45182108 509.09603119 134.77276993 C510.29828994 135.49209407 511.50015132 136.21208304 512.70149994 136.93292618 C514.21357025 137.83591446 514.21357025 137.83591446 515.75618744 138.75714493 C516.43939056 139.24827774 517.12259369 139.73941055 517.82649994 140.24542618 C517.82649994 140.90542618 517.82649994 141.56542618 517.82649994 142.24542618 C516.67802582 142.18484024 515.5295517 142.1242543 514.34627533 142.06183243 C447.21218529 138.57378291 384.54497533 142.24018277 319.13613129 158.66589737 C316.88343572 159.23113995 314.62925845 159.79012929 312.37483978 160.34845352 C245.39902198 177.03613458 180.43844978 202.40549963 117.82649994 231.24542618 C116.05750336 232.05777725 116.05750336 232.05777725 114.25276947 232.88653946 C102.58307291 238.25123216 90.95328129 243.6937644 79.42024994 249.34698868 C78.70776093 249.69621384 77.99527191 250.045439 77.26119232 250.40524673 C76.54346649 250.75711044 75.82574066 251.10897415 75.08626556 251.4715004 C61.39551408 258.18290007 47.64042811 264.68846281 33.70149994 270.87042618 C32.97235382 271.19436356 32.2432077 271.51830093 31.49196625 271.8520546 C27.32021079 273.70176059 23.13749982 275.52355958 18.94454193 277.32464981 C16.71262391 278.2949315 14.49511691 279.29451633 12.27669525 280.29523087 C10.77542391 280.95392106 9.27380628 281.61182265 7.77181244 282.26886368 C7.09311096 282.58272018 6.41440948 282.89657669 5.7151413 283.219944 C0.08833694 285.63648158 -4.58696063 285.60177696 -10.31122589 283.43698502 C-12.69234733 282.38114045 -15.01306526 281.24096565 -17.33756256 280.06573868 C-18.22262482 279.63001541 -19.10768707 279.19429214 -20.0195694 278.74536514 C-22.95156546 277.29823583 -25.87485576 275.83434529 -28.79850006 274.37042618 C-30.87205719 273.34353932 -32.94612421 272.3176815 -35.02066803 271.29278946 C-46.45960529 265.63112613 -57.8630176 259.89845159 -69.26725006 254.16730118 C-103.36687694 236.95319811 -103.36687694 236.95319811 -138.17350006 221.24542618 C-139.52068668 220.67000436 -140.86768311 220.09413712 -142.21451569 219.51788712 C-178.6503226 203.95202128 -215.6439776 189.9425288 -253.17350006 177.24542618 C-254.36102875 176.84357101 -254.36102875 176.84357101 -255.57254791 176.43359756 C-324.1110307 153.29450703 -390.60235286 139.37424444 -463.17350006 140.24542618 C-469.2721778 140.31691477 -475.37064453 140.37735627 -481.46964264 140.41324234 C-483.86800487 140.43248102 -486.26561572 140.46987955 -488.66373444 140.50836563 C-490.12010837 140.51925067 -491.57648881 140.5293074 -493.03287506 140.53839493 C-494.92731354 140.5619606 -494.92731354 140.5619606 -496.8600235 140.58600235 C-500.42028709 140.22006014 -502.29865989 139.31953519 -505.17350006 137.24542618 C-501.67530423 129.12255228 -491.9022865 125.20473826 -484.48600006 121.24542618 C-483.44927155 120.68855118 -482.41254303 120.13167618 -481.3443985 119.55792618 C-468.48295917 112.72087507 -455.34843507 106.44885308 -442.17350006 100.24542618 C-441.00238678 99.6935463 -439.8312735 99.14166641 -438.62467194 98.5730629 C-430.49479772 94.7521128 -422.33950869 90.98841744 -414.17350006 87.24542618 C-413.02478424 86.71594376 -411.87606842 86.18646133 -410.69254303 85.64093399 C-380.48563345 71.74347454 -349.65953239 59.60138315 -318.17313385 48.92389297 C-316.24231822 48.26877587 -314.31283433 47.60985465 -312.383461 46.9505043 C-239.58074928 22.22651055 -164.224478 7.48225174 -87.58707428 2.40686417 C-85.26520863 2.25156034 -82.94397772 2.08871482 -80.62271881 1.9246254 C-53.7784946 0.06965842 -26.89528442 0.03513865 0 0 Z " fill="#ffffff" transform="translate(1026.1735000610352,22.754573822021484)"/>
</svg>